<svg width="256" height="256" viewBox="0 0 256 256" fill="none" xmlns="http://www.w3.org/2000/svg">
<rect width="256" height="256" rx="66.5" fill="#2E2E36"/>
<path d="M50.8419 178.118C48.3994 178.118 46.9806 175.355 48.4037 173.37L80.642 128.399C81.3926 127.352 81.3909 125.943 80.6379 124.898L48.8347 80.7536C47.4051 78.7693 48.8231 76 51.2688 76H73.753C74.745 76 75.6728 76.4903 76.2317 77.3099L97.6091 108.661C98.168 109.48 99.0958 109.971 100.088 109.971H100.607C101.599 109.971 102.526 109.48 103.085 108.661L124.463 77.3099C125.022 76.4903 125.949 76 126.941 76H149.426C151.871 76 153.289 78.7693 151.86 80.7536L120.057 124.898C119.304 125.943 119.302 127.352 120.052 128.399L152.291 173.37C153.714 175.355 152.295 178.118 149.853 178.118H126.952C125.954 178.118 125.022 177.621 124.464 176.794L103.084 145.059C102.526 144.231 101.594 143.735 100.596 143.735H100.098C99.1006 143.735 98.168 144.231 97.6105 145.059L76.2303 176.794C75.6728 177.621 74.7402 178.118 73.7423 178.118H50.8419Z" fill="#007DF3"/>
<path d="M191.526 181C186.06 181 181.413 179.216 177.587 175.647C173.897 171.941 172.052 167.206 172.052 161.441C172.052 155.676 173.897 151.01 177.587 147.441C181.413 143.735 186.06 141.882 191.526 141.882C197.129 141.882 201.775 143.735 205.465 147.441C209.155 151.01 211 155.676 211 161.441C211 167.206 209.155 171.941 205.465 175.647C201.775 179.216 197.129 181 191.526 181Z" fill="white"/>
</svg>
